<svg width="227" height="275" viewBox="0 0 227 275" fill="none" xmlns="http://www.w3.org/2000/svg">
<path d="M107.692 17.4015L113.34 13.2929L118.98 17.4015L116.829 10.755L122.47 6.64645H115.497L113.34 0L111.182 6.64645H104.196L109.85 10.755L107.692 17.4015Z" fill="#B9A779"/>
<path d="M135.91 17.5637L139.523 23.5416L140.108 16.5771L146.906 14.9739L140.472 12.2738L141.057 5.30933L136.495 10.6057L130.054 7.89911L133.674 13.877L129.112 19.1669L135.91 17.5637Z" fill="#B9A779"/>
<path d="M86.5708 16.5901L87.0842 23.5546L90.756 17.6156L97.5408 19.2837L93.0306 13.9484L96.7025 8.00945L90.2426 10.6447L85.7324 5.30933L86.2458 12.2803L79.7795 14.922L86.5708 16.5901Z" fill="#B9A779"/>
<path d="M178.744 61.9081C178.256 62.382 177.762 62.8363 177.255 63.2777L201.119 98.892L192.047 97.6782C189.109 97.2888 186.523 95.5493 185.054 92.979L170.815 68.1327C170.25 68.4962 169.678 68.8531 169.093 69.1842L191.93 110.712L182.851 108.881C179.874 108.284 177.366 106.304 176.092 103.546L161.847 72.7476C161.223 73.0072 160.592 73.2473 159.956 73.4745L174.883 107.271L167.956 105.876C164.693 105.22 162.009 102.903 160.885 99.7747L152.183 75.6229C151.52 75.7527 150.857 75.8696 150.194 75.9734L159.826 104.234L154.646 103.189C151.091 102.475 148.258 99.8007 147.328 96.2957L142.37 77.5507C141.733 77.7259 141.102 77.9141 140.479 78.1218L146.224 101.495L142.513 100.748C138.665 99.9759 135.682 96.9123 135.013 93.0439L132.959 81.166L129.411 89.3896C129.015 90.3048 129.112 91.3563 129.665 92.1871L140.596 108.654C140.745 108.881 140.836 109.141 140.855 109.413L141.07 112.529L147.959 119.416H164.16V126.484L160.716 123.031H156.914L160.527 126.646L156.589 130.586V126.646L152.969 123.031H149.486L145.866 126.646V129.755L141.661 125.543L145.314 121.986L138.88 115.554L136.566 115.807C136.202 115.846 135.832 115.755 135.526 115.554L122.009 106.564L131.725 119.695L147.198 140.595H140.667C136.969 140.595 133.603 138.446 132.043 135.09L126.37 122.888C125.83 123.135 125.291 123.368 124.745 123.583L133.856 146.547H130.711C126.116 146.547 122.178 143.262 121.353 138.738L118.896 125.257C118.357 125.354 117.824 125.439 117.278 125.504L119.331 141.601C119.728 144.697 118.578 147.786 116.264 149.876L113.359 152.492L110.454 149.876C108.134 147.786 106.99 144.697 107.387 141.601L109.44 125.504C108.894 125.439 108.355 125.348 107.822 125.257L105.365 138.738C104.54 143.262 100.602 146.547 96.0071 146.547H92.8616L101.973 123.583C101.427 123.368 100.881 123.135 100.348 122.888L94.6748 135.09C93.1151 138.446 89.7487 140.595 86.0509 140.595H79.5196L94.9933 119.695L104.709 106.57L91.1914 115.554C90.886 115.755 90.5156 115.846 90.1516 115.807L87.8381 115.554L81.4042 121.986L85.0565 125.543L80.8518 129.755V126.646L77.232 123.031H73.7486L70.1288 126.646V130.586L66.1905 126.646L69.8038 123.031H66.002L62.5576 126.484V119.416H78.7592L85.648 112.529L85.8689 109.413C85.8884 109.141 85.9794 108.881 86.1289 108.654L97.0599 92.1871C97.6123 91.3563 97.7033 90.3048 97.3133 89.3896L93.765 81.1595L91.7113 93.0439C91.042 96.9123 88.059 99.9759 84.2117 100.748L80.5074 101.495L86.2523 78.1153C85.6285 77.9076 84.9916 77.7194 84.3547 77.5442L79.3961 96.2957C78.4668 99.8007 75.6268 102.475 72.0719 103.189L66.8923 104.234L76.5236 75.9669C75.8607 75.8696 75.1913 75.7463 74.5349 75.6164L65.833 99.7682C64.7022 102.897 62.0247 105.214 58.7623 105.869L51.8345 107.265L66.7559 73.455C66.119 73.2344 65.4951 72.9877 64.8712 72.7346L50.6258 103.526C49.352 106.278 46.8434 108.258 43.867 108.862L34.7816 110.692L57.6315 69.1647C57.0466 68.8272 56.4747 68.4767 55.9093 68.1067L41.6639 92.9595C40.1886 95.5298 37.6021 97.2693 34.6711 97.6588L25.5988 98.8725L49.4625 63.2517C48.9556 62.8103 48.4552 62.3495 47.9677 61.8822L34.5281 81.2049C32.8774 83.5805 30.2324 85.0733 27.3469 85.2681L18.4306 85.8587L42.5347 55.9043C42.1188 55.372 41.7094 54.8333 41.3129 54.2816L27.9383 70.3265C26.1317 72.4944 23.4542 73.7471 20.6337 73.7471H11.7563L54.4796 29.2211C56.7801 26.826 59.9581 25.4695 63.2855 25.4695H72.8128C75.3603 25.4695 77.4269 27.5335 77.4269 30.0844V35.4651C77.4269 39.8009 78.8762 43.7991 81.3132 47.0055C84.7966 51.5944 90.3141 54.5542 96.514 54.5542C97.8917 54.5542 99.2435 54.4049 100.543 54.1258C101.577 53.9051 102.415 53.1392 102.694 52.1202L106.08 39.8723C106.126 39.6516 106.132 39.4244 106.1 39.1973C105.872 37.7109 103.858 36.7892 101.603 37.1332C99.8024 37.4058 98.3921 38.4119 98.0152 39.5607C98.0152 39.5607 97.0144 37.6135 96.9884 36.1596C96.9624 34.2838 97.7683 33.2453 99.5815 32.3301L102.733 30.8503C104.722 29.0264 107.952 27.8451 111.617 27.8451C117.258 27.8451 121.898 30.649 122.496 34.2708L122.555 34.7122L124.836 51.8995C124.998 53.1262 125.947 54.1063 127.169 54.3076C128.17 54.4698 129.197 54.5542 130.243 54.5542C136.449 54.5542 141.96 51.5944 145.444 47.0055C147.874 43.7991 149.33 39.8074 149.33 35.4651V30.0844C149.33 27.5335 151.397 25.4695 153.944 25.4695H163.471C166.792 25.4695 169.977 26.826 172.277 29.2211L215.001 73.7471H206.13C203.309 73.7471 200.632 72.4944 198.825 70.3265L185.444 54.2816C185.054 54.8268 184.651 55.372 184.229 55.9043L208.326 85.8587L199.403 85.2681C196.518 85.0798 193.873 83.5805 192.222 81.2049L178.783 61.8887L178.744 61.9081Z" fill="#B9A779"/>
<path d="M221.385 261.39C218.796 259.589 217.088 258.403 217.088 255.977C217.088 254.117 218.459 252.866 220.504 252.866C221.491 252.866 223.264 253.102 224.83 255.599H225.102V252.311C224.789 252.199 223.311 251.614 220.711 251.614C216.852 251.614 214.358 253.71 214.358 256.945C214.358 259.861 216.196 261.661 219.594 263.957C222.46 265.84 223.826 267.174 223.826 269.642C223.826 271.873 222.159 273.491 219.866 273.491C216.863 273.491 215.055 271.454 214.033 267.718H213.684V273.195C214.718 273.845 216.763 274.801 219.866 274.801C223.95 274.801 226.692 272.292 226.692 268.556C226.692 265.226 224.233 263.444 221.391 261.378L221.385 261.39Z" fill="white"/>
<path d="M35.3835 252.287L36.8492 253.911V269.613L21.3944 251.992H17.1096V252.287L19.71 254.82V272.564L18.2443 274.187V274.477H22.6946V274.187L21.2289 272.564V256.52L37.192 274.477H38.3681V253.911L39.8338 252.287V251.992H35.3835V252.287Z" fill="white"/>
<path d="M185.357 252.287L186.823 253.911V269.613L171.368 251.992H167.077V252.287L169.684 254.82V272.564L168.218 274.187V274.477H172.662V274.187L171.202 272.564V256.52L187.16 274.477H188.342V253.911L189.801 252.287V251.992H185.357V252.287Z" fill="white"/>
<path d="M77.4276 251.626C71.163 251.626 66.2399 256.726 66.2399 263.509C66.2399 270.291 71.0507 274.848 77.4276 274.848C83.8046 274.848 88.6508 269.66 88.6508 263.031C88.6508 256.402 83.8282 251.62 77.4276 251.62V251.626ZM77.4276 273.573C72.9596 273.573 69.7209 269.24 69.7209 263.273C69.7209 257.305 72.9655 252.907 77.4276 252.907C81.8897 252.907 85.2052 257.269 85.2052 263.273C85.2052 269.276 81.937 273.573 77.4276 273.573Z" fill="white"/>
<path d="M133.969 268.361L125.34 252.028L125.323 251.992H121.741V252.287L123.053 254.737V272.564L121.588 274.187V274.477H126.038V274.187L124.572 272.564V257.075L132.852 272.517H133.236L141.581 256.815V272.564L140.116 274.187V274.477H146.185V274.187L144.719 272.564V253.911L146.185 252.287V251.992H142.55L133.969 268.361Z" fill="white"/>
<path d="M192.449 256.077H192.75L194.979 253.238H200.593V272.564L199.127 274.187V274.477H205.197V274.187L203.737 272.564V253.238H209.387L211.615 256.077H211.917V251.992H192.449V256.077Z" fill="white"/>
<path d="M12.2811 273.196H4.60394V263.131H11.5305L13.3035 264.731H13.599V260.292H13.3035L11.5305 261.886H4.60394V253.238H11.6073L13.8414 256.077H14.1369V251.992H0V252.287L1.4657 253.911V272.564L0 274.187V274.477H14.9524V269.689H14.6451L12.2811 273.196Z" fill="white"/>
<path d="M162.249 273.196H154.577V263.131H161.504L163.277 264.731H163.573V260.292H163.277L161.504 261.886H154.577V253.238H161.581L163.809 256.077H164.11V251.992H149.973V252.287L151.439 253.911V272.564L149.973 274.187V274.477H164.92V269.689H164.619L162.249 273.196Z" fill="white"/>
<path d="M114.761 252.299L116.221 253.911L110.317 270.114L106.269 260.333L109.052 253.922L110.784 252.293V251.992H106.139V252.293L107.604 253.899L105.589 258.674L103.603 253.899L105.069 252.293V251.992H98.7865V252.293L100.459 253.922L103.621 261.278L99.608 270.126L93.0893 253.905L94.5549 252.299V251.992H88.2785V252.293L89.8151 253.922L98.4615 274.878L98.4792 274.913H98.9697L104.366 262.995L109.531 274.913H110.027L117.746 253.922L119.401 252.293V251.992H114.761V252.299Z" fill="white"/>
<path d="M60.3653 254.831C58.1135 253.002 54.9399 251.998 51.4234 251.998H43.1316V252.293L44.5973 253.917V272.57L43.1316 274.193V274.488H52.304C59.2483 274.488 64.1004 269.795 64.1004 263.078C64.1004 259.672 62.812 256.821 60.3712 254.837L60.3653 254.831ZM58.2731 270.545C56.772 272.328 54.6798 273.272 52.2331 273.272C49.7863 273.272 48.3561 272.788 47.7355 272.487V253.214H51.3524C56.8074 253.214 60.6194 257.281 60.6194 263.107C60.6194 266.153 59.8097 268.727 58.2731 270.545Z" fill="white"/>
<path d="M97.0313 224.095C94.4427 222.294 92.7347 221.108 92.7347 218.682C92.7347 216.822 94.1058 215.571 96.1507 215.571C97.1376 215.571 98.9106 215.807 100.477 218.304H100.749V215.016C100.435 214.904 98.9579 214.319 96.3575 214.319C92.4983 214.319 90.0042 216.415 90.0042 219.65C90.0042 222.566 91.8422 224.366 95.2405 226.662C98.1069 228.545 99.4721 229.88 99.4721 232.347C99.4721 234.578 97.8055 236.196 95.5124 236.196C92.5101 236.196 90.7016 234.159 89.6792 230.423H89.3305V235.901C90.3647 236.55 92.4096 237.506 95.5124 237.506C99.5962 237.506 102.338 234.997 102.338 231.261C102.338 227.932 99.8799 226.149 97.0372 224.083L97.0313 224.095Z" fill="white"/>
<path d="M72.7823 214.986L74.248 216.61V232.311L58.7932 214.697H54.5084V214.986L57.1088 217.519V235.263L55.6431 236.886V237.176H60.0934V236.886L58.6277 235.263V219.219L74.5908 237.176H75.7669V216.61L77.2326 214.986V214.697H72.7823V214.986Z" fill="white"/>
<path d="M157.001 214.986L158.466 216.61L153.053 224.903L147.639 216.61L149.105 214.986V214.697H142.137V214.986L144.004 216.621L150.689 226.58V235.263L149.223 236.886V237.176H155.293V236.886L153.827 235.263L153.815 226.037L159.991 216.633L161.906 214.986V214.697H157.001V214.986Z" fill="white"/>
<path d="M140.216 231.946L136.971 226.468C137.663 226.096 138.26 225.629 138.744 225.074C140.411 223.162 140.837 220.494 139.826 218.28C138.786 216.002 136.481 214.691 133.502 214.691H125.855V214.986L127.32 216.61V235.263L125.855 236.886V237.181H131.924V236.886L130.459 235.263V226.255L131.055 227.294H133.632C133.739 227.294 133.833 227.288 133.987 227.276L137.598 233.498C140.056 237.843 142.604 237.612 144.855 237.164V236.857C144.016 236.597 142.645 236.042 140.216 231.94V231.946ZM133.467 226.149H130.459V215.872H132.557C135.99 215.872 137.326 218.599 137.326 221.043C137.326 223.487 135.973 226.149 133.467 226.149Z" fill="white"/>
<path d="M181.598 214.325C175.334 214.325 170.41 219.425 170.41 226.208C170.41 232.99 175.221 237.548 181.598 237.548C187.975 237.548 192.821 232.359 192.821 225.73C192.821 219.101 187.999 214.319 181.598 214.319V214.325ZM181.598 236.272C177.13 236.272 173.892 231.94 173.892 225.972C173.892 220.004 177.136 215.606 181.598 215.606C186.06 215.606 189.376 219.968 189.376 225.972C189.376 231.975 186.108 236.272 181.598 236.272Z" fill="white"/>
<path d="M195.162 214.986L196.627 216.61V235.263L195.162 236.886V237.176H201.231V236.886L199.772 235.263V225.83H206.692L208.465 227.43H208.761V222.991H208.465L206.692 224.584H199.772V215.937H206.769L209.003 218.776H209.305V214.697H195.162V214.986Z" fill="white"/>
<path d="M45.5192 214.986L46.979 216.61V235.263L45.5192 236.886V237.176H51.5889V236.886L50.1232 235.263V216.61L51.5889 214.986V214.697H45.5192V214.986Z" fill="white"/>
<path d="M80.5304 214.986L81.9961 216.61V235.263L80.5304 236.886V237.176H86.6V236.886L85.1343 235.263V216.61L86.6 214.986V214.697H80.5304V214.986Z" fill="white"/>
<path d="M29.763 231.06L21.1344 214.732L21.1166 214.697H17.5351V214.986L18.8472 217.436V235.263L17.3815 236.886V237.176H21.8317V236.886L20.366 235.263V219.774L28.646 235.222H29.0302L37.3752 219.514V235.263L35.9095 236.886V237.176H41.9791V236.886L40.5134 235.263V216.61L41.9791 214.986V214.697H38.3444L29.763 231.06Z" fill="white"/>
<path d="M103.503 218.776H103.804L106.032 215.937H111.647V235.263L110.187 236.886V237.176H116.257V236.886L114.791 235.263V215.937H120.441L122.669 218.776H122.97V214.697H103.503V218.776Z" fill="white"/>
<path d="M112.061 179.645C108.668 184.066 110.542 188.523 111.464 191.014H120.151L120.831 189.84V191.014C120.831 195.365 117.291 197.407 113.899 196.882L114.058 198.092C115.364 198.228 118.698 199.036 121.57 196.451C123.106 195.064 123.981 193.086 123.969 191.014V177.845L125.435 176.221V175.926H119.596C116.647 175.926 113.857 177.296 112.066 179.639L112.061 179.645ZM120.825 177.06V189.739H114.537C113.585 187.036 112.031 183.211 114.584 179.875C115.938 178.104 118.047 177.06 120.281 177.06H120.825Z" fill="white"/>
<path d="M149.122 168.825L150.588 170.448V189.102L149.122 190.725V191.02H155.192V190.725L153.726 189.102V170.448L155.192 168.825V168.536H149.122V168.825Z" fill="white"/>
<path d="M140.127 168.825L141.587 170.448V189.739H132.693L135.795 187.768V174.834L137.261 173.211V172.922H132.657V189.739H129.294L127.326 188.488H127.06V191.02H146.191V190.725L144.731 189.102V170.448L146.191 168.825V168.536H140.127V168.825Z" fill="white"/>
<path d="M102.947 173.571L104.98 171.54V171.281L102.947 169.244H102.687L100.648 171.281V171.54L102.687 173.571H102.947Z" fill="white"/>
<path d="M97.9237 173.571L99.9567 171.54V171.281L97.9237 169.244H97.6577L95.6247 171.281V171.54L97.6577 173.571H97.9237Z" fill="white"/>
<path d="M100.861 188.275V187.821C92.3268 187.171 92.841 177.06 100.737 177.06H102.658V189.733H47.0026V170.442L48.4683 168.819V168.524H42.3987V168.819L43.8644 170.442V189.096L42.3987 190.719V191.014H105.802V177.845L107.267 176.221V175.926H99.1589C87.9475 175.926 88.834 189.733 100.861 188.269V188.275Z" fill="white"/>
<path d="M31.8375 173.571L33.8705 171.54V171.281L31.8375 169.244H31.5774L29.5385 171.281V171.54L31.5774 173.571H31.8375Z" fill="white"/>
<path d="M32.7299 188.275V187.827C24.1958 187.177 24.7099 177.066 32.6058 177.066H34.5265V189.739H8.87099C6.111 189.739 3.86518 187.502 3.86518 184.739V177.213H0.72694V183.081C0.72694 187.467 4.28478 191.014 8.67595 191.014H37.6707V177.845L39.1364 176.221V175.926H31.0278C19.8164 175.926 20.7029 189.733 32.7299 188.269V188.275Z" fill="white"/>
<path d="M137.852 169.516H136.185C135.228 169.516 134.531 169.291 134.117 168.849C133.709 168.406 133.656 167.839 133.685 167.438C133.733 166.771 134.046 166.334 134.442 166.098C134.466 166.086 135.701 165.319 136.617 166.783H136.93V165.466C136.794 165.419 136.239 165.195 135.234 165.195C134.601 165.195 132.515 165.36 132.344 167.521C132.326 167.745 132.297 168.79 133.177 169.516H132.344L131.7 169.108H131.428V170.224H137.45L137.858 169.516H137.852Z" fill="white"/>
<path d="M204.884 173.571L206.917 171.54V171.281L204.884 169.244H204.624L202.585 171.281V171.54L204.624 173.571H204.884Z" fill="white"/>
<path d="M203.182 191.422C203.182 195.306 201.326 197.567 198.294 197.012L198.442 198.163C202.697 198.96 206.326 196.858 206.326 191.144V177.851L207.792 176.228V175.932H203.188V191.422H203.182Z" fill="white"/>
<path d="M184.24 191.422C184.24 195.306 182.39 197.567 179.352 197.012L179.5 198.163C183.755 198.96 187.384 196.858 187.384 191.144V177.851L188.85 176.228V175.932H184.246V191.422H184.24Z" fill="white"/>
<path d="M191.858 168.825L193.318 170.448V189.102L191.858 190.725V191.02H197.922V190.725L196.462 189.102V170.448L197.922 168.825V168.536H191.858V168.825Z" fill="white"/>
<path d="M176.977 173.571L179.01 171.54V171.281L176.977 169.244H176.717L174.683 171.281V171.54L176.717 173.571H176.977Z" fill="white"/>
<path d="M171.953 173.571L173.986 171.54V171.281L171.953 169.244H171.693L169.66 171.281V171.54L171.693 173.571H171.953Z" fill="white"/>
<path d="M220.114 175.932C217.165 175.932 214.375 177.302 212.585 179.645C209.192 184.067 211.066 188.523 211.988 191.014H220.676L221.355 189.846V191.02C221.355 195.371 217.815 197.413 214.423 196.888L214.582 198.098C215.888 198.234 219.222 199.042 222.094 196.457C223.631 195.07 224.505 193.092 224.493 191.02V177.851L225.959 176.228V175.932H220.12H220.114ZM221.349 189.739H215.061C214.109 187.036 212.555 183.211 215.108 179.876C216.462 178.105 218.572 177.06 220.806 177.06H221.349V189.739Z" fill="white"/>
<path d="M179.878 175.932H172.337C168.165 175.932 164.784 179.309 164.784 183.476C164.784 187.644 168.165 191.02 172.337 191.02H174.601L175.28 189.846V191.02H178.419V177.851L179.884 176.228V175.932H179.878ZM175.274 189.739H174.193C170.73 189.739 167.922 186.935 167.922 183.476C167.922 181.818 168.584 180.224 169.76 179.049C170.936 177.874 172.532 177.213 174.193 177.213H175.274V189.739Z" fill="white"/>
</svg>
