<svg width="16" height="16" viewBox="0 0 16 16" fill="none" xmlns="http://www.w3.org/2000/svg">
<g clip-path="url(#clip0_342_418)">
<path d="M8.0013 2.66699C6.94647 2.66699 5.91533 2.97979 5.03826 3.56582C4.1612 4.15185 3.47761 4.98481 3.07395 5.95935C2.67028 6.93389 2.56466 8.00624 2.77045 9.04081C2.97624 10.0754 3.48419 11.0257 4.23007 11.7716C4.97595 12.5174 5.92626 13.0254 6.96082 13.2312C7.99539 13.437 9.06774 13.3313 10.0423 12.9277C11.0168 12.524 11.8498 11.8404 12.4358 10.9634C13.0218 10.0863 13.3346 9.05516 13.3346 8.00033C13.3346 6.58584 12.7727 5.22928 11.7725 4.22909C10.7723 3.2289 9.41579 2.66699 8.0013 2.66699ZM8.0013 12.4448C7.12228 12.4448 6.26299 12.1841 5.5321 11.6957C4.80122 11.2074 4.23156 10.5133 3.89517 9.70114C3.55878 8.88902 3.47077 7.9954 3.64226 7.13326C3.81375 6.27112 4.23704 5.4792 4.85861 4.85763C5.48017 4.23606 6.2721 3.81277 7.13424 3.64128C7.99637 3.46979 8.89 3.5578 9.70212 3.89419C10.5142 4.23058 11.2084 4.80024 11.6967 5.53112C12.1851 6.26201 12.4457 7.1213 12.4457 8.00033C12.4457 8.58398 12.3308 9.16192 12.1074 9.70114C11.8841 10.2404 11.5567 10.7303 11.144 11.143C10.7313 11.5557 10.2413 11.8831 9.70212 12.1065C9.16289 12.3298 8.58496 12.4448 8.0013 12.4448Z" fill="#CE3939"/>
<path d="M7.99965 8.91988C7.84642 8.91988 7.69946 8.85901 7.5911 8.75065C7.48275 8.6423 7.42188 8.49534 7.42188 8.3421V5.67543C7.42188 5.5222 7.48275 5.37524 7.5911 5.26688C7.69946 5.15853 7.84642 5.09766 7.99965 5.09766C8.15289 5.09766 8.29985 5.15853 8.4082 5.26688C8.51656 5.37524 8.57743 5.5222 8.57743 5.67543V8.3421C8.57743 8.49534 8.51656 8.6423 8.4082 8.75065C8.29985 8.85901 8.15289 8.91988 7.99965 8.91988Z" fill="#CE3939"/>
<path d="M7.97917 10.8978C8.34736 10.8978 8.64583 10.5993 8.64583 10.2311C8.64583 9.86293 8.34736 9.56445 7.97917 9.56445C7.61098 9.56445 7.3125 9.86293 7.3125 10.2311C7.3125 10.5993 7.61098 10.8978 7.97917 10.8978Z" fill="#CE3939"/>
</g>
<defs>
<clipPath id="clip0_342_418">
<rect width="16" height="16" fill="white"/>
</clipPath>
</defs>
</svg>
